<svg width="829" height="698" viewBox="0 0 829 698" fill="none" xmlns="http://www.w3.org/2000/svg">
<rect width="829" height="698" fill="#E5E5E5"/>
<g id="developer 1" clip-path="url(#clip0)">
<path id="Vector" d="M747.459 363.25C747.567 449.621 713.031 532.668 651.112 594.934C647.379 598.712 643.545 602.399 639.61 605.995C633.616 611.507 627.42 616.805 621.023 621.89C561.181 669.55 486.473 696.332 408.953 697.915C406.37 697.972 403.778 698 401.175 698C339.351 698 261.592 666.079 191.025 621.89C185.187 618.234 179.4 614.494 173.666 610.669C170.986 608.897 168.318 607.101 165.664 605.279C138.447 586.702 112.613 566.301 88.3525 544.226C72.4681 529.815 57.5727 514.418 43.7611 498.134C-10.4602 433.481 -22.4195 375.226 54.8821 363.25C64.0344 361.837 72.9169 360.326 81.5298 358.718C94.0057 356.401 105.946 353.898 117.349 351.209C132.71 347.601 147.142 343.687 160.644 339.47C165.186 338.056 169.624 336.615 173.958 335.145C238.034 313.39 280.92 285.021 310.111 254.239C315.062 249.029 319.627 243.756 323.805 238.42C330.198 230.298 336.004 221.761 341.184 212.868C348.333 200.512 354.337 187.569 359.128 174.191L359.391 173.456C382.617 108.69 375.551 48.6164 401.175 28.5102C510.709 -57.4456 647.077 64.9634 711.084 209.316C714.31 216.59 717.344 223.907 720.187 231.269C721.464 234.557 722.695 237.852 723.881 241.152C727 249.754 729.83 258.379 732.371 267.025C733.345 270.322 734.274 273.617 735.158 276.908C736.104 280.46 737.01 284.003 737.848 287.546C744.076 313.484 747.459 339.064 747.459 363.25Z" fill="#CAFDC9"/>
<path id="Vector_2" d="M408.953 697.915C406.37 697.972 403.778 698 401.175 698C339.351 698 261.592 666.079 191.025 621.89C185.187 618.234 179.4 614.494 173.666 610.669L178.695 581.084L330.95 561.543L407.364 618.027L408.953 697.915Z" fill="#2F2E41"/>
<path id="Vector_3" d="M416.283 169.64H394.586C393.914 169.641 393.27 169.899 392.795 170.358C392.32 170.818 392.053 171.44 392.052 172.09V193.072C392.053 193.394 392.118 193.712 392.246 194.008C392.374 194.305 392.56 194.574 392.796 194.801C393.031 195.027 393.31 195.207 393.618 195.329C393.925 195.451 394.254 195.514 394.586 195.513H416.283C416.953 195.513 417.596 195.256 418.071 194.799C418.546 194.341 418.815 193.721 418.817 193.072V172.09C418.815 171.441 418.547 170.819 418.072 170.36C417.598 169.901 416.954 169.642 416.283 169.64V169.64Z" fill="white"/>
<path id="Vector_4" d="M416.283 205.396H394.586C393.914 205.397 393.27 205.655 392.795 206.114C392.32 206.574 392.053 207.196 392.052 207.846V228.829C392.053 229.15 392.118 229.468 392.246 229.764C392.374 230.061 392.56 230.33 392.796 230.557C393.031 230.783 393.31 230.963 393.618 231.085C393.925 231.207 394.254 231.27 394.586 231.269H416.283C416.953 231.269 417.596 231.012 418.071 230.555C418.547 230.098 418.815 229.477 418.817 228.829V207.846C418.815 207.197 418.547 206.575 418.072 206.116C417.598 205.657 416.954 205.398 416.283 205.396Z" fill="#E6E6E6"/>
<path id="Vector_5" d="M416.283 241.152H394.586C393.914 241.153 393.27 241.411 392.795 241.87C392.32 242.33 392.053 242.953 392.052 243.602V264.575C392.052 264.897 392.117 265.216 392.244 265.513C392.371 265.811 392.558 266.081 392.793 266.309C393.028 266.536 393.308 266.717 393.616 266.84C393.924 266.962 394.253 267.025 394.586 267.025H416.283C416.955 267.024 417.599 266.766 418.074 266.307C418.549 265.848 418.817 265.225 418.817 264.575V243.602C418.815 242.953 418.547 242.331 418.072 241.872C417.598 241.413 416.954 241.154 416.283 241.152V241.152Z" fill="#E6E6E6"/>
<path id="Vector_6" d="M418.778 278.925C418.67 278.36 418.361 277.85 417.906 277.482C417.45 277.114 416.876 276.911 416.283 276.908H394.586C393.914 276.909 393.27 277.167 392.795 277.626C392.32 278.086 392.053 278.708 392.052 279.358V300.331C392.052 300.653 392.117 300.972 392.244 301.269C392.371 301.567 392.558 301.837 392.793 302.065C393.028 302.292 393.308 302.473 393.616 302.596C393.924 302.719 394.253 302.781 394.586 302.781H416.283C416.955 302.781 417.599 302.522 418.074 302.063C418.549 301.604 418.817 300.981 418.817 300.331V279.358C418.819 279.213 418.806 279.068 418.778 278.925V278.925Z" fill="#E6E6E6"/>
<path id="Vector_7" d="M417.267 312.853C416.955 312.728 416.62 312.664 416.283 312.664H394.586C394.253 312.664 393.924 312.727 393.616 312.85C393.308 312.972 393.029 313.153 392.793 313.38C392.558 313.608 392.371 313.878 392.244 314.176C392.117 314.473 392.052 314.792 392.052 315.114V336.087C392.051 336.409 392.115 336.728 392.242 337.026C392.369 337.324 392.556 337.595 392.791 337.823C393.027 338.05 393.307 338.231 393.615 338.353C393.923 338.476 394.253 338.538 394.586 338.537H416.283C416.955 338.537 417.599 338.278 418.074 337.819C418.55 337.36 418.817 336.737 418.817 336.087V315.114C418.816 314.632 418.668 314.161 418.393 313.759C418.117 313.357 417.726 313.042 417.267 312.853Z" fill="#E6E6E6"/>
<path id="Vector_8" d="M461.859 169.64H440.162C439.49 169.641 438.846 169.899 438.371 170.358C437.896 170.818 437.629 171.44 437.628 172.09V193.072C437.629 193.394 437.694 193.712 437.822 194.008C437.95 194.305 438.136 194.574 438.372 194.801C438.607 195.027 438.886 195.207 439.194 195.329C439.501 195.451 439.83 195.514 440.162 195.513H461.859C462.529 195.513 463.172 195.256 463.647 194.799C464.122 194.341 464.39 193.721 464.393 193.072V172.09C464.391 171.441 464.123 170.819 463.648 170.36C463.174 169.901 462.53 169.642 461.859 169.64V169.64Z" fill="#E6E6E6"/>
<path id="Vector_9" d="M461.859 205.396H440.162C439.49 205.397 438.846 205.655 438.371 206.114C437.896 206.574 437.629 207.196 437.628 207.846V228.829C437.629 229.15 437.694 229.468 437.822 229.764C437.95 230.061 438.136 230.33 438.372 230.557C438.607 230.783 438.886 230.963 439.194 231.085C439.501 231.207 439.83 231.27 440.162 231.269H461.859C462.529 231.269 463.172 231.012 463.647 230.555C464.122 230.098 464.39 229.477 464.393 228.829V207.846C464.391 207.197 464.123 206.575 463.648 206.116C463.174 205.657 462.53 205.398 461.859 205.396Z" fill="#6C63FF"/>
<path id="Vector_10" d="M461.859 241.152H440.162C439.49 241.153 438.846 241.411 438.371 241.87C437.896 242.33 437.629 242.953 437.628 243.602V264.575C437.628 264.897 437.693 265.216 437.82 265.513C437.947 265.811 438.134 266.081 438.369 266.309C438.604 266.536 438.884 266.717 439.192 266.84C439.499 266.962 439.829 267.025 440.162 267.025H461.859C462.531 267.024 463.175 266.766 463.65 266.307C464.125 265.848 464.392 265.225 464.393 264.575V243.602C464.391 242.953 464.123 242.331 463.648 241.872C463.174 241.413 462.53 241.154 461.859 241.152V241.152Z" fill="#6C63FF"/>
<path id="Vector_11" d="M461.859 276.908H440.162C439.631 276.909 439.113 277.071 438.683 277.372C438.252 277.673 437.931 278.098 437.765 278.585C437.674 278.834 437.628 279.095 437.628 279.358V300.331C437.628 300.653 437.693 300.972 437.82 301.269C437.947 301.567 438.133 301.837 438.369 302.065C438.604 302.292 438.884 302.473 439.192 302.596C439.499 302.719 439.829 302.781 440.162 302.781H461.859C462.531 302.781 463.175 302.522 463.65 302.063C464.125 301.604 464.392 300.981 464.393 300.331V279.358C464.391 278.709 464.123 278.087 463.648 277.628C463.173 277.169 462.53 276.91 461.859 276.908V276.908Z" fill="#6C63FF"/>
<path id="Vector_12" d="M461.859 312.664H440.162C439.829 312.664 439.499 312.727 439.192 312.85C438.884 312.972 438.604 313.153 438.369 313.38C438.134 313.608 437.947 313.878 437.82 314.176C437.693 314.473 437.628 314.792 437.628 315.114V336.087C437.628 336.409 437.693 336.728 437.82 337.025C437.947 337.323 438.134 337.593 438.369 337.821C438.604 338.048 438.884 338.229 439.192 338.352C439.499 338.475 439.829 338.538 440.162 338.537H461.859C462.531 338.537 463.175 338.278 463.65 337.819C464.125 337.36 464.392 336.737 464.393 336.087V315.114C464.392 314.464 464.125 313.842 463.65 313.382C463.175 312.923 462.531 312.665 461.859 312.664V312.664Z" fill="#E6E6E6"/>
<path id="Vector_13" d="M507.434 169.64H485.738C485.066 169.641 484.422 169.899 483.947 170.358C483.472 170.818 483.204 171.44 483.204 172.09V193.072C483.204 193.394 483.27 193.712 483.398 194.008C483.525 194.305 483.712 194.574 483.948 194.801C484.183 195.027 484.462 195.207 484.77 195.329C485.077 195.451 485.406 195.514 485.738 195.513H507.434C508.105 195.513 508.748 195.256 509.223 194.799C509.698 194.341 509.966 193.721 509.969 193.072V172.09C509.967 171.441 509.699 170.819 509.224 170.36C508.749 169.901 508.106 169.642 507.434 169.64V169.64Z" fill="#6C63FF"/>
<path id="Vector_14" d="M507.434 205.396H485.738C485.066 205.397 484.422 205.655 483.947 206.114C483.471 206.574 483.204 207.196 483.204 207.846V228.829C483.204 229.15 483.27 229.468 483.398 229.764C483.525 230.061 483.712 230.33 483.948 230.557C484.183 230.783 484.462 230.963 484.77 231.085C485.077 231.207 485.406 231.27 485.738 231.269H507.434C508.105 231.269 508.748 231.012 509.223 230.555C509.698 230.098 509.966 229.477 509.969 228.829V207.846C509.967 207.197 509.699 206.575 509.224 206.116C508.749 205.657 508.106 205.398 507.434 205.396Z" fill="#6C63FF"/>
<path id="Vector_15" d="M507.434 241.152H485.738C485.066 241.153 484.422 241.411 483.947 241.87C483.472 242.33 483.204 242.953 483.204 243.602V264.575C483.203 264.897 483.269 265.216 483.396 265.513C483.523 265.811 483.709 266.081 483.945 266.309C484.18 266.536 484.46 266.717 484.768 266.84C485.075 266.962 485.405 267.025 485.738 267.025H507.434C508.106 267.024 508.751 266.766 509.226 266.307C509.701 265.848 509.968 265.225 509.969 264.575V243.602C509.967 242.953 509.699 242.331 509.224 241.872C508.749 241.413 508.106 241.154 507.434 241.152V241.152Z" fill="#E6E6E6"/>
<path id="Vector_16" d="M507.434 276.908H485.738C485.066 276.909 484.422 277.167 483.947 277.626C483.472 278.086 483.204 278.708 483.204 279.358V300.331C483.203 300.653 483.269 300.972 483.396 301.269C483.523 301.567 483.709 301.837 483.945 302.065C484.18 302.292 484.46 302.473 484.768 302.596C485.075 302.719 485.405 302.781 485.738 302.781H507.434C508.107 302.781 508.751 302.522 509.226 302.063C509.701 301.604 509.968 300.981 509.969 300.331V279.358C509.967 278.709 509.699 278.087 509.224 277.628C508.749 277.169 508.106 276.91 507.434 276.908V276.908Z" fill="#6C63FF"/>
<path id="Vector_17" d="M507.434 312.664H485.738C485.405 312.664 485.075 312.727 484.768 312.85C484.46 312.972 484.18 313.153 483.945 313.38C483.709 313.608 483.523 313.878 483.396 314.176C483.269 314.473 483.203 314.792 483.204 315.114V336.087C483.203 336.409 483.269 336.728 483.396 337.025C483.523 337.323 483.709 337.593 483.945 337.821C484.18 338.048 484.46 338.229 484.768 338.352C485.075 338.475 485.405 338.538 485.738 338.537H507.434C508.107 338.537 508.751 338.278 509.226 337.819C509.701 337.36 509.968 336.737 509.969 336.087V315.114C509.968 314.464 509.701 313.842 509.226 313.382C508.751 312.923 508.107 312.665 507.434 312.664V312.664Z" fill="#6C63FF"/>
<path id="Vector_18" d="M553.01 169.64H531.314C530.642 169.641 529.998 169.899 529.523 170.358C529.047 170.818 528.78 171.44 528.78 172.09V193.072C528.78 193.394 528.846 193.712 528.974 194.008C529.101 194.305 529.288 194.574 529.523 194.801C529.759 195.027 530.038 195.207 530.345 195.329C530.653 195.451 530.982 195.514 531.314 195.513H553.01C553.681 195.513 554.324 195.256 554.799 194.799C555.274 194.341 555.542 193.721 555.545 193.072V172.09C555.543 171.441 555.275 170.819 554.8 170.36C554.325 169.901 553.682 169.642 553.01 169.64V169.64Z" fill="#6C63FF"/>
<path id="Vector_19" d="M553.01 205.396H531.314C530.642 205.397 529.998 205.655 529.522 206.114C529.047 206.574 528.78 207.196 528.78 207.846V228.829C528.78 229.15 528.846 229.468 528.974 229.764C529.101 230.061 529.288 230.33 529.523 230.557C529.759 230.783 530.038 230.963 530.345 231.085C530.653 231.207 530.982 231.27 531.314 231.269H553.01C553.681 231.269 554.324 231.012 554.799 230.555C555.274 230.098 555.542 229.477 555.545 228.829V207.846C555.543 207.197 555.275 206.575 554.8 206.116C554.325 205.657 553.682 205.398 553.01 205.396V205.396Z" fill="white"/>
<path id="Vector_20" d="M553.01 241.152H531.314C530.642 241.153 529.998 241.411 529.522 241.87C529.047 242.33 528.78 242.953 528.78 243.602V264.575C528.779 264.897 528.844 265.216 528.971 265.513C529.099 265.811 529.285 266.081 529.521 266.309C529.756 266.536 530.036 266.717 530.343 266.84C530.651 266.962 530.981 267.025 531.314 267.025H553.01C553.682 267.024 554.327 266.766 554.802 266.307C555.277 265.848 555.544 265.225 555.545 264.575V243.602C555.543 242.953 555.275 242.331 554.8 241.872C554.325 241.413 553.682 241.154 553.01 241.152V241.152Z" fill="white"/>
<path id="Vector_21" d="M553.01 276.908H531.314C530.642 276.909 529.998 277.167 529.522 277.626C529.047 278.086 528.78 278.708 528.78 279.358V300.331C528.779 300.653 528.844 300.972 528.971 301.269C529.099 301.567 529.285 301.837 529.521 302.065C529.756 302.292 530.036 302.473 530.343 302.596C530.651 302.719 530.981 302.781 531.314 302.781H553.01C553.682 302.781 554.327 302.522 554.802 302.063C555.277 301.604 555.544 300.981 555.545 300.331V279.358C555.543 278.709 555.275 278.087 554.8 277.628C554.325 277.169 553.682 276.91 553.01 276.908V276.908Z" fill="#E6E6E6"/>
<path id="Vector_22" d="M553.01 312.664H531.314C530.981 312.664 530.651 312.727 530.343 312.85C530.036 312.972 529.756 313.153 529.521 313.38C529.285 313.608 529.099 313.878 528.971 314.176C528.844 314.473 528.779 314.792 528.78 315.114V336.087C528.779 336.409 528.844 336.728 528.971 337.025C529.099 337.323 529.285 337.593 529.521 337.821C529.756 338.048 530.036 338.229 530.343 338.352C530.651 338.475 530.981 338.538 531.314 338.537H553.01C553.682 338.537 554.327 338.278 554.802 337.819C555.277 337.36 555.544 336.737 555.545 336.087V315.114C555.544 314.464 555.277 313.842 554.802 313.382C554.327 312.923 553.682 312.665 553.01 312.664V312.664Z" fill="#6C63FF"/>
<path id="Vector_23" d="M598.586 169.64H576.88C576.21 169.643 575.568 169.902 575.094 170.361C574.621 170.82 574.356 171.442 574.356 172.09V193.072C574.356 193.72 574.622 194.34 575.095 194.798C575.569 195.256 576.211 195.513 576.88 195.513H598.586C599.257 195.513 599.9 195.256 600.375 194.799C600.85 194.341 601.118 193.721 601.121 193.072V172.09C601.119 171.441 600.851 170.819 600.376 170.36C599.901 169.901 599.258 169.642 598.586 169.64Z" fill="white"/>
<path id="Vector_24" d="M598.586 205.396H576.88C576.21 205.399 575.567 205.658 575.094 206.117C574.621 206.576 574.356 207.198 574.356 207.846V228.829C574.356 229.476 574.622 230.096 575.095 230.554C575.569 231.012 576.211 231.269 576.88 231.269H598.586C599.257 231.269 599.9 231.012 600.375 230.555C600.85 230.098 601.118 229.477 601.121 228.829V207.846C601.119 207.197 600.851 206.575 600.376 206.116C599.901 205.657 599.258 205.398 598.586 205.396V205.396Z" fill="white"/>
<path id="Vector_25" d="M598.586 241.152H576.88C576.21 241.155 575.568 241.414 575.094 241.873C574.621 242.332 574.356 242.954 574.356 243.602V264.575C574.355 264.896 574.419 265.215 574.546 265.512C574.672 265.809 574.858 266.078 575.093 266.306C575.327 266.534 575.606 266.714 575.912 266.837C576.219 266.961 576.548 267.024 576.88 267.025H598.586C599.258 267.024 599.903 266.766 600.378 266.307C600.853 265.848 601.12 265.225 601.121 264.575V243.602C601.119 242.953 600.851 242.331 600.376 241.872C599.901 241.413 599.258 241.154 598.586 241.152V241.152Z" fill="white"/>
<path id="Vector_26" d="M598.586 276.908H576.88C576.21 276.911 575.568 277.17 575.094 277.629C574.621 278.088 574.356 278.71 574.356 279.358V300.331C574.355 300.652 574.419 300.971 574.546 301.268C574.672 301.565 574.858 301.834 575.093 302.062C575.327 302.29 575.606 302.47 575.912 302.593C576.219 302.717 576.548 302.781 576.88 302.781H598.586C599.258 302.781 599.903 302.522 600.378 302.063C600.853 301.604 601.12 300.981 601.121 300.331V279.358C601.119 278.709 600.851 278.087 600.376 277.628C599.901 277.169 599.258 276.91 598.586 276.908V276.908Z" fill="#6C63FF"/>
<path id="Vector_27" d="M598.586 312.664H576.88C576.548 312.665 576.219 312.728 575.912 312.852C575.606 312.975 575.327 313.156 575.093 313.383C574.858 313.611 574.672 313.881 574.546 314.178C574.419 314.475 574.355 314.793 574.356 315.114V336.087C574.355 336.408 574.419 336.726 574.546 337.023C574.672 337.321 574.858 337.59 575.093 337.818C575.327 338.046 575.606 338.226 575.912 338.35C576.219 338.473 576.548 338.537 576.88 338.537H598.586C599.258 338.537 599.903 338.278 600.378 337.819C600.853 337.36 601.12 336.737 601.121 336.087V315.114C601.12 314.464 600.853 313.842 600.378 313.382C599.903 312.923 599.258 312.665 598.586 312.664V312.664Z" fill="#E6E6E6"/>
<path id="Vector_28" d="M644.162 169.64H622.456C621.786 169.643 621.143 169.902 620.67 170.361C620.197 170.82 619.931 171.442 619.932 172.09V193.072C619.932 193.72 620.198 194.34 620.671 194.798C621.145 195.256 621.787 195.513 622.456 195.513H644.162C644.833 195.513 645.476 195.256 645.951 194.799C646.426 194.341 646.694 193.721 646.696 193.072V172.09C646.694 171.441 646.427 170.819 645.952 170.36C645.477 169.901 644.834 169.642 644.162 169.64V169.64Z" fill="white"/>
<path id="Vector_29" d="M644.162 205.396H622.456C621.786 205.399 621.143 205.658 620.67 206.117C620.197 206.576 619.931 207.198 619.932 207.846V228.829C619.932 229.476 620.198 230.096 620.671 230.554C621.145 231.012 621.787 231.269 622.456 231.269H644.162C644.833 231.269 645.476 231.012 645.951 230.555C646.426 230.097 646.694 229.477 646.696 228.829V207.846C646.694 207.197 646.427 206.575 645.952 206.116C645.477 205.657 644.834 205.398 644.162 205.396V205.396Z" fill="white"/>
<path id="Vector_30" d="M644.162 241.152H622.456C621.786 241.155 621.143 241.414 620.67 241.873C620.197 242.332 619.931 242.954 619.932 243.602V264.575C619.931 264.896 619.995 265.215 620.122 265.512C620.248 265.809 620.434 266.078 620.668 266.306C620.903 266.534 621.182 266.714 621.488 266.837C621.795 266.961 622.124 267.024 622.456 267.025H644.162C644.834 267.024 645.479 266.766 645.954 266.307C646.429 265.848 646.696 265.225 646.696 264.575V243.602C646.694 242.953 646.427 242.331 645.952 241.872C645.477 241.413 644.834 241.154 644.162 241.152V241.152Z" fill="#6C63FF"/>
<path id="Vector_31" d="M644.162 276.908H622.456C621.786 276.911 621.143 277.17 620.67 277.629C620.197 278.088 619.931 278.71 619.932 279.358V300.331C619.931 300.652 619.995 300.971 620.122 301.268C620.248 301.565 620.434 301.834 620.668 302.062C620.903 302.29 621.182 302.47 621.488 302.593C621.795 302.717 622.124 302.781 622.456 302.781H644.162C644.834 302.781 645.479 302.522 645.954 302.063C646.429 301.604 646.696 300.981 646.696 300.331V279.358C646.694 278.709 646.427 278.087 645.952 277.628C645.477 277.169 644.834 276.91 644.162 276.908V276.908Z" fill="#E6E6E6"/>
<path id="Vector_32" d="M644.162 312.664H622.456C622.124 312.665 621.795 312.728 621.488 312.852C621.182 312.975 620.903 313.156 620.668 313.383C620.434 313.611 620.248 313.881 620.122 314.178C619.995 314.475 619.931 314.793 619.932 315.114V336.087C619.931 336.408 619.995 336.726 620.122 337.023C620.248 337.321 620.434 337.59 620.668 337.818C620.903 338.046 621.182 338.226 621.488 338.35C621.795 338.473 622.124 338.537 622.456 338.537H644.162C644.834 338.537 645.479 338.278 645.954 337.819C646.429 337.36 646.696 336.737 646.696 336.087V315.114C646.696 314.464 646.429 313.842 645.954 313.382C645.479 312.923 644.834 312.665 644.162 312.664Z" fill="white"/>
<path id="Vector_33" d="M689.738 169.64H668.032C667.362 169.643 666.719 169.902 666.246 170.361C665.773 170.82 665.507 171.442 665.508 172.09V193.072C665.508 193.72 665.774 194.34 666.247 194.798C666.721 195.256 667.363 195.513 668.032 195.513H689.738C690.409 195.513 691.052 195.256 691.527 194.799C692.002 194.341 692.27 193.721 692.272 193.072V172.09C692.27 171.441 692.003 170.819 691.528 170.36C691.053 169.901 690.41 169.642 689.738 169.64V169.64Z" fill="#6C63FF"/>
<path id="Vector_34" d="M689.738 205.396H668.032C667.362 205.399 666.719 205.658 666.246 206.117C665.773 206.576 665.507 207.198 665.508 207.846V228.829C665.508 229.476 665.774 230.096 666.247 230.554C666.721 231.012 667.363 231.269 668.032 231.269H689.738C690.409 231.269 691.052 231.012 691.527 230.555C692.002 230.097 692.27 229.477 692.272 228.829V207.846C692.27 207.197 692.003 206.575 691.528 206.116C691.053 205.657 690.41 205.398 689.738 205.396Z" fill="#6C63FF"/>
<path id="Vector_35" d="M689.738 241.152H668.032C667.362 241.155 666.719 241.414 666.246 241.873C665.773 242.332 665.507 242.954 665.508 243.602V264.575C665.507 264.896 665.571 265.215 665.698 265.512C665.824 265.809 666.01 266.078 666.244 266.306C666.479 266.534 666.757 266.714 667.064 266.837C667.371 266.961 667.7 267.024 668.032 267.025H689.738C690.41 267.024 691.054 266.766 691.53 266.307C692.005 265.848 692.272 265.225 692.272 264.575V243.602C692.27 242.953 692.003 242.331 691.528 241.872C691.053 241.413 690.41 241.154 689.738 241.152V241.152Z" fill="#E6E6E6"/>
<path id="Vector_36" d="M689.738 276.908H668.032C667.362 276.911 666.719 277.17 666.246 277.629C665.773 278.088 665.507 278.71 665.508 279.358V300.331C665.507 300.652 665.571 300.971 665.698 301.268C665.824 301.565 666.01 301.834 666.244 302.062C666.479 302.29 666.757 302.47 667.064 302.593C667.371 302.717 667.7 302.781 668.032 302.781H689.738C690.41 302.781 691.054 302.522 691.53 302.063C692.005 301.604 692.272 300.981 692.272 300.331V279.358C692.27 278.709 692.003 278.087 691.528 277.628C691.053 277.169 690.41 276.91 689.738 276.908V276.908Z" fill="white"/>
<path id="Vector_37" d="M689.738 312.664H668.032C667.7 312.665 667.371 312.728 667.064 312.852C666.757 312.975 666.479 313.156 666.244 313.383C666.01 313.611 665.824 313.881 665.698 314.178C665.571 314.475 665.507 314.793 665.508 315.114V336.087C665.507 336.408 665.571 336.726 665.698 337.023C665.824 337.321 666.01 337.59 666.244 337.818C666.479 338.046 666.757 338.226 667.064 338.35C667.371 338.473 667.7 338.537 668.032 338.537H689.738C690.41 338.537 691.054 338.278 691.53 337.819C692.005 337.36 692.272 336.737 692.272 336.087V315.114C692.272 314.464 692.005 313.842 691.53 313.382C691.054 312.923 690.41 312.665 689.738 312.664Z" fill="#6C63FF"/>
<path id="Vector_38" d="M735.314 169.64H713.608C712.937 169.643 712.295 169.902 711.822 170.361C711.349 170.82 711.083 171.442 711.083 172.09V193.072C711.084 193.72 711.35 194.34 711.823 194.798C712.296 195.256 712.938 195.513 713.608 195.513H735.314C735.985 195.513 736.628 195.256 737.103 194.799C737.578 194.341 737.846 193.721 737.848 193.072V172.09C737.846 171.441 737.579 170.819 737.104 170.36C736.629 169.901 735.985 169.642 735.314 169.64Z" fill="#6C63FF"/>
<path id="Vector_39" d="M735.314 205.396H713.608C712.937 205.399 712.295 205.658 711.822 206.117C711.349 206.576 711.083 207.198 711.083 207.846V228.829C711.084 229.476 711.35 230.096 711.823 230.554C712.296 231.012 712.938 231.269 713.608 231.269H735.314C735.984 231.269 736.628 231.012 737.103 230.555C737.578 230.097 737.846 229.477 737.848 228.829V207.846C737.846 207.197 737.579 206.575 737.104 206.116C736.629 205.657 735.986 205.398 735.314 205.396V205.396Z" fill="#6C63FF"/>
<path id="Vector_40" d="M735.314 241.152H713.608C712.937 241.155 712.295 241.414 711.822 241.873C711.349 242.332 711.083 242.954 711.084 243.602V264.575C711.083 264.896 711.147 265.215 711.274 265.512C711.4 265.809 711.586 266.078 711.82 266.306C712.055 266.534 712.333 266.714 712.64 266.837C712.947 266.961 713.276 267.024 713.608 267.025H735.314C735.986 267.024 736.63 266.766 737.106 266.307C737.581 265.848 737.848 265.225 737.848 264.575V243.602C737.846 242.953 737.579 242.331 737.104 241.872C736.629 241.413 735.986 241.154 735.314 241.152Z" fill="#E6E6E6"/>
<path id="Vector_41" d="M735.314 276.908H713.608C712.937 276.911 712.295 277.17 711.822 277.629C711.349 278.088 711.083 278.71 711.084 279.358V300.331C711.083 300.652 711.147 300.971 711.274 301.268C711.4 301.565 711.586 301.834 711.82 302.062C712.055 302.29 712.333 302.47 712.64 302.593C712.947 302.717 713.276 302.781 713.608 302.781H735.314C735.986 302.781 736.63 302.522 737.106 302.063C737.581 301.604 737.848 300.981 737.848 300.331V279.358C737.846 278.709 737.579 278.087 737.104 277.628C736.629 277.169 735.986 276.91 735.314 276.908V276.908Z" fill="#6C63FF"/>
<path id="Vector_42" d="M735.314 312.664H713.608C713.276 312.665 712.947 312.728 712.64 312.852C712.333 312.975 712.055 313.156 711.82 313.383C711.586 313.611 711.4 313.881 711.274 314.178C711.147 314.475 711.083 314.793 711.084 315.114V336.087C711.083 336.408 711.147 336.726 711.274 337.023C711.4 337.321 711.586 337.59 711.82 337.818C712.055 338.046 712.333 338.226 712.64 338.35C712.947 338.473 713.276 338.537 713.608 338.537H735.314C735.986 338.537 736.63 338.278 737.106 337.819C737.581 337.36 737.848 336.737 737.848 336.087V315.114C737.848 314.464 737.581 313.842 737.106 313.382C736.63 312.923 735.986 312.665 735.314 312.664V312.664Z" fill="#6C63FF"/>
<path id="Vector_43" d="M780.89 169.64H759.184C758.513 169.643 757.871 169.902 757.398 170.361C756.925 170.82 756.659 171.442 756.659 172.09V193.072C756.66 193.72 756.926 194.34 757.399 194.798C757.872 195.256 758.514 195.513 759.184 195.513H780.89C781.56 195.513 782.204 195.256 782.679 194.799C783.154 194.341 783.422 193.721 783.424 193.072V172.09C783.422 171.441 783.154 170.819 782.68 170.36C782.205 169.901 781.561 169.642 780.89 169.64V169.64Z" fill="#E6E6E6"/>
<path id="Vector_44" d="M780.89 205.396H759.184C758.513 205.399 757.871 205.658 757.398 206.117C756.925 206.576 756.659 207.198 756.659 207.846V228.829C756.66 229.476 756.926 230.096 757.399 230.554C757.872 231.012 758.514 231.269 759.184 231.269H780.89C781.56 231.269 782.204 231.012 782.679 230.555C783.154 230.097 783.422 229.477 783.424 228.829V207.846C783.422 207.197 783.154 206.575 782.68 206.116C782.205 205.657 781.561 205.398 780.89 205.396V205.396Z" fill="#6C63FF"/>
<path id="Vector_45" d="M780.89 241.152H759.184C758.513 241.155 757.871 241.414 757.398 241.873C756.925 242.332 756.659 242.954 756.659 243.602V264.575C756.659 264.896 756.723 265.215 756.85 265.512C756.976 265.809 757.162 266.078 757.396 266.306C757.631 266.534 757.909 266.714 758.216 266.837C758.523 266.961 758.852 267.024 759.184 267.025H780.89C781.562 267.024 782.206 266.766 782.681 266.307C783.157 265.848 783.424 265.225 783.424 264.575V243.602C783.422 242.953 783.154 242.331 782.68 241.872C782.205 241.413 781.561 241.154 780.89 241.152V241.152Z" fill="#6C63FF"/>
<path id="Vector_46" d="M780.89 276.908H759.184C758.513 276.911 757.871 277.17 757.398 277.629C756.925 278.088 756.659 278.71 756.659 279.358V300.331C756.658 300.652 756.723 300.971 756.85 301.268C756.976 301.565 757.162 301.834 757.396 302.062C757.631 302.29 757.909 302.47 758.216 302.593C758.523 302.717 758.852 302.781 759.184 302.781H780.89C781.562 302.781 782.206 302.522 782.681 302.063C783.157 301.604 783.424 300.981 783.424 300.331V279.358C783.422 278.709 783.154 278.087 782.68 277.628C782.205 277.169 781.561 276.91 780.89 276.908V276.908Z" fill="#6C63FF"/>
<path id="Vector_47" d="M780.89 312.664H759.184C758.852 312.665 758.523 312.728 758.216 312.852C757.909 312.975 757.631 313.156 757.396 313.383C757.162 313.611 756.976 313.881 756.85 314.178C756.723 314.475 756.659 314.793 756.659 315.114V336.087C756.659 336.408 756.723 336.726 756.85 337.023C756.976 337.321 757.162 337.59 757.396 337.818C757.631 338.046 757.909 338.226 758.216 338.35C758.523 338.473 758.852 338.537 759.184 338.537H780.89C781.562 338.537 782.206 338.278 782.681 337.819C783.157 337.36 783.424 336.737 783.424 336.087V315.114C783.424 314.464 783.157 313.842 782.681 313.382C782.206 312.923 781.562 312.665 780.89 312.664V312.664Z" fill="#E6E6E6"/>
<path id="Vector_48" d="M826.466 169.64H804.76C804.089 169.643 803.447 169.902 802.974 170.361C802.501 170.82 802.235 171.442 802.235 172.09V193.072C802.235 193.72 802.501 194.34 802.975 194.798C803.448 195.256 804.09 195.513 804.76 195.513H826.466C827.136 195.513 827.78 195.256 828.255 194.799C828.73 194.341 828.998 193.721 829 193.072V172.09C828.998 171.441 828.73 170.819 828.256 170.36C827.781 169.901 827.137 169.642 826.466 169.64V169.64Z" fill="#E6E6E6"/>
<path id="Vector_49" d="M826.466 205.396H804.76C804.089 205.399 803.447 205.658 802.974 206.117C802.501 206.576 802.235 207.198 802.235 207.846V228.829C802.235 229.476 802.501 230.096 802.975 230.554C803.448 231.012 804.09 231.269 804.76 231.269H826.466C827.136 231.269 827.78 231.012 828.255 230.555C828.73 230.097 828.998 229.477 829 228.829V207.846C828.998 207.197 828.73 206.575 828.256 206.116C827.781 205.657 827.137 205.398 826.466 205.396V205.396Z" fill="#E6E6E6"/>
<path id="Vector_50" d="M826.466 241.152H804.76C804.089 241.155 803.447 241.414 802.974 241.873C802.501 242.332 802.235 242.954 802.235 243.602V264.575C802.234 264.896 802.299 265.215 802.425 265.512C802.552 265.809 802.738 266.078 802.972 266.306C803.206 266.534 803.485 266.714 803.792 266.837C804.099 266.961 804.428 267.024 804.76 267.025H826.466C827.138 267.024 827.782 266.766 828.257 266.307C828.733 265.848 829 265.225 829 264.575V243.602C828.998 242.953 828.73 242.331 828.256 241.872C827.781 241.413 827.137 241.154 826.466 241.152V241.152Z" fill="#6C63FF"/>
<path id="Vector_51" d="M826.466 276.908H804.76C804.089 276.911 803.447 277.17 802.974 277.629C802.501 278.088 802.235 278.71 802.235 279.358V300.331C802.234 300.652 802.299 300.971 802.425 301.268C802.552 301.565 802.738 301.834 802.972 302.062C803.206 302.29 803.485 302.47 803.792 302.593C804.099 302.717 804.428 302.781 804.76 302.781H826.466C827.138 302.781 827.782 302.522 828.257 302.063C828.733 301.604 829 300.981 829 300.331V279.358C828.998 278.709 828.73 278.087 828.256 277.628C827.781 277.169 827.137 276.91 826.466 276.908V276.908Z" fill="#E6E6E6"/>
<path id="Vector_52" d="M826.466 312.664H804.76C804.428 312.665 804.099 312.728 803.792 312.852C803.485 312.975 803.206 313.156 802.972 313.383C802.738 313.611 802.552 313.881 802.425 314.178C802.299 314.475 802.234 314.793 802.235 315.114V336.087C802.234 336.408 802.299 336.726 802.425 337.023C802.552 337.321 802.738 337.59 802.972 337.818C803.206 338.046 803.485 338.226 803.792 338.35C804.099 338.473 804.427 338.537 804.76 338.537H826.466C827.138 338.537 827.782 338.278 828.257 337.819C828.733 337.36 829 336.737 829 336.087V315.114C829 314.464 828.733 313.842 828.257 313.382C827.782 312.923 827.138 312.665 826.466 312.664V312.664Z" fill="#E6E6E6"/>
<path id="Vector_53" d="M327.585 621.892H326.98L327.497 621.826L327.585 621.892Z" fill="#2F2E41"/>
<path id="face-dev" d="M275.653 230.887C312.43 230.887 342.244 202.067 342.244 166.515C342.244 130.964 312.43 102.143 275.653 102.143C238.875 102.143 209.061 130.964 209.061 166.515C209.061 202.067 238.875 230.887 275.653 230.887Z" fill="#FFB6B6"/>
<path id="hair-dev" d="M333.969 119.319C333.969 119.319 351.386 87.1329 313.068 84.2069C313.068 84.2069 280.402 55.5623 247.106 78.9702C247.106 78.9702 228.945 78.9702 219.014 98.8369C219.014 98.8369 204.73 93.6002 201.591 107.615C201.591 107.615 191.139 136.875 201.591 163.209C212.043 189.543 215.514 192.469 215.514 192.469C215.514 192.469 198.34 137.258 240.144 134.332C281.949 131.406 328.73 106.152 332.214 138.338C335.697 170.524 340.94 178.454 340.94 178.454C340.94 178.454 374.03 132.486 333.969 119.319Z" fill="#2F2E41"/>
<path id="Vector_54" d="M447.911 325.158L447.696 326.251L445.289 338.537L428.651 423.522L427.667 428.525L425.601 439.106L422.774 453.54L416.507 485.527L414.714 494.695L414.041 498.134L413.807 499.34L411.945 508.828L411.38 511.692L406.838 544.226L402.871 572.576L416.146 585.409L408.232 593.059L403.037 621.824L403.047 621.89H191.025C182.448 616.52 173.994 610.983 165.664 605.279L167.409 592.654C167.409 592.654 173.413 570.107 170.888 567.413C168.374 564.718 162.857 559.904 162.857 559.904L169.806 544.226L170.771 542.049L169.153 509.61L169.114 508.828L168.578 498.134L168.51 496.758L168.403 494.695L166.346 453.54L166.307 452.862L165.684 440.387L165.099 428.525L164.845 423.522L162.34 373.464L160.644 339.47L159.163 309.875L165.118 307.925L228.813 286.999L255.198 253.844L310.111 254.239L336.993 254.437L381.847 294.65L392.052 299.361L392.13 299.398L399.45 302.781L418.008 311.345L437.628 320.409L447.697 325.054L447.911 325.158Z" fill="#CACACA"/>
<path id="hand-left" d="M262.294 525.317C258.27 526.824 253.953 527.46 249.648 527.18C245.342 526.9 241.152 525.71 237.373 523.695C233.595 521.68 230.319 518.889 227.777 515.518C225.235 512.147 223.488 508.278 222.66 504.184L118.8 489.94L154.904 450.461L247.997 470.039C255.204 469.151 262.498 470.848 268.497 474.811C274.496 478.774 278.783 484.726 280.545 491.54C282.307 498.353 281.423 505.555 278.059 511.781C274.695 518.006 269.086 522.823 262.294 525.317V525.317Z" fill="#FFB6B6"/>
<path id="Vector_55" d="M215.986 453.54C214.063 451.182 211.339 449.557 208.296 448.952L165.683 440.387L161.307 439.511C158.764 438.998 156.361 437.971 154.257 436.499C152.152 435.026 150.393 433.141 149.094 430.965C147.747 428.682 146.932 426.142 146.706 423.522C146.503 421.14 146.798 418.744 147.574 416.475L162.34 373.464L171.921 345.556C173.082 342.19 173.768 338.688 173.958 335.145C174.492 325.339 171.354 315.676 165.118 307.925C159.636 301.112 152.032 296.185 143.43 293.871C134.828 291.556 125.684 291.978 117.349 295.074C117.105 295.159 116.852 295.253 116.608 295.347C110.631 297.654 105.291 301.274 101.009 305.919C96.7277 310.565 93.6226 316.109 91.9393 322.114L81.5297 358.718L60.0576 434.178C57.9081 441.739 57.4739 449.659 58.7846 457.396C60.0953 465.134 63.12 472.507 67.6516 479.01C72.1832 485.512 78.1149 490.992 85.0405 495.073C91.9661 499.155 99.7221 501.741 107.778 502.656L169.153 509.61L197.555 512.832C200.84 513.214 204.152 512.385 206.833 510.511C209.513 508.638 211.365 505.857 212.02 502.722C212.065 502.552 212.101 502.379 212.127 502.204L212.809 498.134L218.589 463.857L218.647 463.508C218.948 461.759 218.867 459.969 218.409 458.252C217.951 456.535 217.125 454.93 215.986 453.54Z" fill="#CACACA"/>
<path id="hand-right" d="M328.449 526.416C332.653 527.359 337.019 527.4 341.241 526.536C345.463 525.672 349.437 523.923 352.885 521.413C356.332 518.903 359.167 515.693 361.192 512.009C363.217 508.326 364.382 504.257 364.604 500.091L465.349 471.831L423.846 437.668L334.54 469.742C327.275 469.844 320.301 472.519 314.94 477.26C309.579 482.001 306.204 488.478 305.453 495.464C304.702 502.45 306.629 509.459 310.867 515.164C315.105 520.869 321.361 524.872 328.449 526.416V526.416Z" fill="#FFB6B6"/>
<path id="Vector_56" d="M515.368 408.617L467.453 302.018C463.534 293.266 456.535 286.139 447.696 281.902C444.965 280.602 442.095 279.591 439.139 278.887C438.681 278.774 438.223 278.67 437.765 278.585C431.495 277.263 424.992 277.379 418.778 278.925C413.097 280.335 407.788 282.888 403.196 286.416C398.605 289.943 394.834 294.367 392.13 299.398C392.101 299.44 392.075 299.484 392.052 299.53C389.032 305.178 387.426 311.433 387.363 317.791C387.301 324.148 388.783 330.432 391.692 336.134L392.286 337.284L426.146 403.02C427.303 405.268 427.954 407.727 428.058 410.235C428.162 412.744 427.716 415.245 426.75 417.575C425.784 419.905 424.318 422.011 422.451 423.756C420.583 425.5 418.355 426.843 415.912 427.696L413.534 428.525L370.765 443.459C367.556 444.566 364.916 446.833 363.402 449.784C361.888 452.735 361.617 456.138 362.646 459.278L362.753 459.608L374.742 496.692C374.8 496.862 374.859 497.032 374.927 497.201C375.032 497.521 375.163 497.833 375.317 498.134C376.591 500.896 378.843 503.128 381.668 504.429C384.493 505.729 387.705 506.013 390.726 505.228L413.807 499.34L418.515 498.134L478.116 482.918C485.958 480.914 493.26 477.297 499.522 472.312C505.784 467.327 510.857 461.093 514.395 454.037C517.932 446.981 519.851 439.269 520.019 431.43C520.187 423.59 518.601 415.808 515.368 408.617L515.368 408.617Z" fill="#CACACA"/>
<path id="Vector_57" d="M43.761 498.134C57.5727 514.418 72.4681 529.815 88.3525 544.226H528.877C533.122 544.232 537.19 545.865 540.19 548.767C543.19 551.669 544.878 555.603 544.882 559.706L545.515 667.614C572.616 655.578 597.995 640.21 621.023 621.89C627.417 616.812 633.613 611.514 639.61 605.995C643.538 602.396 647.372 598.709 651.112 594.934C679.147 566.702 701.849 533.94 718.189 498.134H43.761Z" fill="#4EC75A"/>
<path id="Vector_58" d="M651.112 594.934C647.379 598.712 643.545 602.399 639.61 605.995H545.837V594.934H651.112Z" fill="white"/>
<path id="Vector_59" d="M447.034 241.152C446.571 240.326 445.885 239.636 445.049 239.155C444.214 238.674 443.259 238.42 442.287 238.42H122.749C121.316 238.424 119.944 238.976 118.931 239.956C117.919 240.936 117.35 242.264 117.349 243.649V428.525H447.696V243.649C447.702 242.776 447.473 241.916 447.034 241.152V241.152Z" fill="#3F3D56"/>
<path id="Vector_60" d="M117.06 423.52V446.334C117.06 447.28 117.253 448.216 117.627 449.09C118.001 449.964 118.55 450.758 119.242 451.426C119.934 452.095 120.755 452.626 121.659 452.987C122.563 453.349 123.532 453.536 124.51 453.536H246.439V498.56H244.819C244.692 498.56 244.566 498.584 244.449 498.631C244.331 498.678 244.225 498.747 244.135 498.834C244.045 498.92 243.974 499.024 243.925 499.137C243.876 499.251 243.851 499.372 243.851 499.495V502.627C243.851 502.75 243.876 502.871 243.925 502.985C243.974 503.098 244.045 503.201 244.135 503.288C244.225 503.375 244.331 503.444 244.449 503.491C244.566 503.538 244.692 503.562 244.819 503.562H320.511C320.638 503.562 320.764 503.538 320.881 503.491C320.999 503.444 321.106 503.375 321.196 503.288C321.285 503.201 321.357 503.098 321.405 502.985C321.454 502.871 321.479 502.75 321.479 502.627V499.495C321.479 499.372 321.454 499.251 321.405 499.137C321.357 499.024 321.285 498.92 321.195 498.834C321.106 498.747 320.999 498.678 320.881 498.631C320.764 498.584 320.638 498.56 320.511 498.56H318.891V453.536H440.82C441.799 453.536 442.767 453.349 443.671 452.987C444.575 452.626 445.397 452.095 446.088 451.426C446.78 450.758 447.329 449.964 447.703 449.09C448.078 448.216 448.271 447.28 448.271 446.334V423.52H117.06Z" fill="#3F3D56"/>
<path id="Vector_61" d="M278.663 358.041C295.515 358.041 309.177 344.835 309.177 328.544C309.177 312.254 295.515 299.048 278.663 299.048C261.811 299.048 248.149 312.254 248.149 328.544C248.149 344.835 261.811 358.041 278.663 358.041Z" fill="#6C63FF"/>
<path id="headphone" d="M356.408 162.998H351.535C351.535 127.383 315.072 104.045 278.288 104.026C272.938 104.011 267.599 104.513 262.352 105.525C256.445 106.665 250.315 108.031 244.291 109.811C220.538 116.85 198.511 130.455 198.511 162.998C198.505 169.318 199.337 175.613 200.986 181.729L196.269 182.916C194.519 176.412 193.635 169.718 193.637 162.998C193.637 134.563 205.713 115.031 226.571 103.386C237.537 97.2616 250.919 93.3138 266.251 91.3917C272.631 90.5712 279.081 90.3818 285.5 90.8264C327.801 93.766 356.408 125.122 356.408 162.998Z" fill="#6C63FF"/>
<path id="headphone-right" d="M364.527 165.608L362.607 151.89C362.134 148.425 360.407 145.234 357.734 142.882C356.018 141.349 353.963 140.213 351.726 139.56C349.488 138.907 347.127 138.754 344.819 139.114L341.769 139.519C340.934 139.625 340.129 139.89 339.401 140.299C338.674 140.709 338.037 141.253 337.529 141.902C337.016 142.549 336.641 143.287 336.425 144.075C336.21 144.863 336.157 145.684 336.271 146.491L340.706 178.092C340.889 179.38 341.486 180.58 342.413 181.521C343.34 182.463 344.55 183.099 345.872 183.34C346.263 183.416 346.662 183.453 347.061 183.453C347.348 183.453 347.635 183.434 347.919 183.396L351.33 182.953C353.41 182.687 355.412 182.012 357.212 180.97C359.012 179.928 360.573 178.541 361.798 176.895C362.061 176.537 362.315 176.17 362.549 175.793C364.376 172.71 365.073 169.121 364.527 165.608Z" fill="#6C63FF"/>
<path id="headphone-left" d="M216.064 195.692L208.56 165.532C208.292 164.444 207.698 163.457 206.851 162.694C206.005 161.932 204.945 161.428 203.803 161.246C203.481 161.197 203.155 161.172 202.828 161.17C202.369 161.172 201.911 161.225 201.464 161.33L198.559 162.009C194.82 162.883 191.591 165.156 189.583 168.328C187.575 171.501 186.951 175.314 187.848 178.93L191.21 192.46C191.978 195.645 193.807 198.499 196.415 200.582C196.838 200.912 197.28 201.217 197.741 201.496C199.374 202.486 201.197 203.149 203.1 203.447C205.003 203.745 206.949 203.671 208.823 203.229L211.717 202.551C212.483 202.378 213.203 202.054 213.832 201.599C214.769 200.94 215.481 200.026 215.878 198.974C216.275 197.922 216.34 196.78 216.064 195.692Z" fill="#6C63FF"/>
</g>
<defs>
<clipPath id="clip0">
<rect width="829" height="698" fill="white"/>
</clipPath>
</defs>
</svg>
