<svg xmlns="http://www.w3.org/2000/svg" xmlns:xlink="http://www.w3.org/1999/xlink" version="1.1" x="0px" y="0px" viewBox="0 0 100 125" style="enable-background:new 0 0 100 100;" xml:space="preserve"><path d="M93.99,30.69L93.99,30.69c-0.2-0.12-0.4-0.25-0.61-0.36c-0.22-0.09-0.43-0.19-0.65-0.27c-0.22-0.08-0.44-0.15-0.67-0.21  l-0.68-0.16c-0.91-0.18-1.83-0.29-2.76-0.34c-0.92-0.05-1.85-0.06-2.77,0.01c-0.23,0.01-0.46,0.03-0.69,0.06  c-0.23,0.02-0.46,0.05-0.69,0.08c-0.46,0.06-0.91,0.14-1.37,0.28l-0.03,0.01l-0.02,0.02h0c-0.31,0.29-0.66,0.58-1,0.86l-1.02,0.85  l-1.44,1.2c0.07-0.09,0.13-0.19,0.19-0.29l0.61-0.94c0.4-0.63,0.8-1.26,1.17-1.92l0.31-0.54l-0.57,0.29l0,0  c-1.31,0.67-2.6,1.36-3.9,2.04c-1.3,0.68-2.6,1.37-3.88,2.08l-0.04,0.02l-0.01,0.05v0c-0.17,0.99-0.66,1.9-1.29,2.69  c-0.43,0.54-0.92,1.03-1.43,1.51c0.02-0.04,0.04-0.08,0.06-0.12c0.17-0.32,0.32-0.66,0.46-0.99c0.14-0.34,0.27-0.68,0.39-1.02  c0.06-0.17,0.12-0.35,0.17-0.52c0.03-0.09,0.05-0.18,0.08-0.27c0.02-0.1,0.05-0.17,0.06-0.34l0.01-0.55l-0.45,0.38v0  c-0.33,0.28-0.75,0.57-1.14,0.84l-1.19,0.83c-0.8,0.55-1.6,1.1-2.39,1.67c-0.2,0.14-0.39,0.29-0.59,0.44  c-0.1,0.08-0.19,0.17-0.29,0.26c-0.08,0.1-0.17,0.19-0.24,0.29c-0.3,0.4-0.55,0.83-0.77,1.27c-0.32,0.67-0.6,1.36-0.79,2.08  c0-0.06,0.01-0.12,0.01-0.18c0.02-0.3,0.05-0.6,0.09-0.89c0.04-0.3,0.09-0.59,0.15-0.89c0.06-0.29,0.13-0.58,0.23-0.82l0.27-0.63  l-0.58,0.33v0c-0.18,0.1-0.29,0.21-0.42,0.32c-0.12,0.11-0.23,0.22-0.34,0.33c-0.22,0.22-0.44,0.45-0.65,0.68l-0.63,0.68  c-0.11,0.12-0.21,0.19-0.33,0.37c-0.04,0.08-0.08,0.15-0.12,0.23l-0.09,0.23c-0.21,0.61-0.33,1.21-0.45,1.83  c-0.05,0.28-0.1,0.55-0.15,0.83c-0.01-0.19-0.01-0.38-0.01-0.58c0-0.53,0-1.07,0.05-1.6l0.02-0.16l-0.18,0.07  c-0.33,0.14-0.6,0.38-0.81,0.65c-0.12,0.13-0.22,0.26-0.32,0.4c-0.1,0.14-0.21,0.27-0.3,0.41c-0.39,0.56-0.73,1.15-1.05,1.75  c-0.1,0.19-0.19,0.38-0.28,0.58c-0.12-0.1-0.23-0.21-0.35-0.31c-0.34-0.29-0.67-0.59-1.02-0.89c0,0,0,0,0,0  c0.09-0.03,0.18-0.06,0.27-0.1c0.32-0.13,0.64-0.27,0.95-0.5c0.15-0.12,0.31-0.25,0.43-0.46c0.12-0.2,0.17-0.5,0.09-0.74  c-0.08-0.24-0.21-0.41-0.35-0.55c-0.14-0.14-0.29-0.25-0.43-0.36c-0.6-0.41-1.23-0.66-1.87-0.9c-0.3-0.11-0.55-0.23-0.74-0.4  c-0.19-0.17-0.3-0.37-0.34-0.6c-0.07-0.48,0.19-1.06,0.52-1.58c0.08-0.13,0.17-0.25,0.26-0.39c0.1-0.14,0.2-0.28,0.29-0.43  c0.19-0.3,0.35-0.61,0.49-0.94c0.14-0.34,0.25-0.7,0.27-1.11c0.02-0.4-0.09-0.87-0.37-1.23c-0.28-0.36-0.66-0.56-1.01-0.7  c-0.36-0.13-0.72-0.2-1.07-0.25c-0.71-0.08-1.4-0.06-2.08-0.01c-1.41,0.12-2.71,0.58-3.96,1.12c-0.63,0.26-1.22,0.58-1.82,0.89  c-0.58,0.34-1.17,0.67-1.73,1.04c-0.57,0.35-1.11,0.75-1.66,1.14c-0.27,0.2-0.53,0.41-0.8,0.61c-0.27,0.2-0.53,0.41-0.79,0.63  c-1.05,0.84-2.02,1.76-2.97,2.72l-0.69,0.73l-0.66,0.77c-0.23,0.25-0.42,0.53-0.63,0.8c-0.21,0.26-0.4,0.55-0.59,0.84l-0.28,0.43  l-0.26,0.41c-0.17,0.28-0.35,0.55-0.53,0.83c-0.23,0.36-0.47,0.72-0.71,1.07c-0.96,0.82-1.97,1.58-3.01,2.3  c-0.38,0.27-0.78,0.51-1.16,0.77c-0.4,0.24-0.79,0.49-1.19,0.73c-0.4,0.23-0.8,0.48-1.21,0.7c-0.41,0.22-0.81,0.45-1.23,0.66  c-1.64,0.87-3.35,1.61-5.07,2.35c-1.72,0.73-3.45,1.43-5.19,2.08c-0.87,0.32-1.75,0.64-2.63,0.94c-0.88,0.3-1.76,0.59-2.65,0.86  c-0.44,0.13-0.89,0.26-1.34,0.39l-0.67,0.18c-0.1,0.03-0.26,0.07-0.39,0.12c-0.13,0.05-0.26,0.1-0.39,0.16  c-0.5,0.24-0.94,0.55-1.34,0.95c-0.2,0.21-0.39,0.44-0.53,0.74c-0.14,0.29-0.25,0.7-0.16,1.13c0.02,0.11,0.07,0.21,0.11,0.31  c0.05,0.09,0.1,0.19,0.17,0.27c0.13,0.16,0.26,0.28,0.41,0.38c0.29,0.19,0.56,0.28,0.83,0.36C8,64.01,8.5,64.03,8.99,64.04  c0.5,0.01,0.98-0.03,1.44-0.05l1.41-0.04c1.88-0.05,3.76-0.14,5.64-0.24c1.88-0.11,3.75-0.25,5.63-0.43  c0.79-0.08,1.58-0.17,2.36-0.28c0,0,0.01,0,0.01,0h0c1.82,0.26,3.65,0.31,5.48,0.38l1.68,0.04c0.56,0.01,1.12,0.01,1.68,0.01  c1.12,0.01,2.24-0.01,3.36-0.02c4.49-0.08,8.97-0.28,13.44-0.52c2.24-0.13,4.48-0.25,6.71-0.42l3.35-0.25l0.84-0.07  c0.16-0.02,0.31-0.04,0.47-0.07c0.16-0.04,0.32-0.06,0.47-0.13c0.32-0.09,0.63-0.28,0.9-0.52c0.27-0.24,0.47-0.55,0.6-0.85  c0.14-0.31,0.21-0.62,0.27-0.91c0.06-0.3,0.09-0.59,0.12-0.88c0.06-0.58,0.08-1.13,0.18-1.61c0.06-0.24,0.13-0.45,0.24-0.66  c0.11-0.2,0.25-0.4,0.42-0.59c0.33-0.38,0.74-0.75,1.15-1.11c0.42-0.37,0.84-0.73,1.27-1.09c0.21-0.18,0.44-0.37,0.66-0.58  c0.22-0.21,0.42-0.44,0.62-0.68c0.19-0.25,0.36-0.53,0.49-0.84c0.13-0.31,0.22-0.67,0.19-1.05c-0.02-0.38-0.17-0.76-0.39-1.05  c-0.22-0.3-0.48-0.52-0.76-0.7c-0.55-0.35-1.14-0.55-1.72-0.68c-0.58-0.14-1.16-0.22-1.74-0.27c-0.58-0.05-1.15-0.07-1.73-0.06  c-0.2,0-0.4,0.02-0.6,0.03c0.25-0.14,0.51-0.28,0.76-0.42c0.33-0.18,0.66-0.35,0.99-0.52c0.33-0.17,0.67-0.33,0.99-0.45l0.11-0.04  l0.07-0.33v0c0,0-0.02-0.07-0.02-0.11c-0.01-0.06-0.02-0.11-0.02-0.17l-0.02-0.35C66.01,45.21,66,44.97,66,44.72  c0-0.2,0-0.39,0.01-0.58c0.03,0.16,0.06,0.31,0.09,0.47c0.1,0.43,0.22,0.86,0.38,1.28L66.52,46l0.11-0.07l0.01,0  c0.24-0.14,0.5-0.29,0.75-0.43l0.76-0.42l0.76-0.41c0.25-0.13,0.52-0.27,0.76-0.38l0.28-0.12l-0.19-0.27l0-0.01  c-0.04-0.04-0.1-0.17-0.15-0.27c-0.05-0.11-0.09-0.22-0.14-0.34c-0.08-0.23-0.16-0.47-0.23-0.71c-0.11-0.38-0.2-0.76-0.25-1.15  c0.11,0.13,0.22,0.24,0.33,0.36l0.55,0.59c0.36,0.4,0.71,0.8,1.04,1.22l0.08,0.11l0.09-0.13l0-0.01c0.07-0.13,0.22-0.26,0.35-0.37  c0.14-0.12,0.29-0.23,0.44-0.34c0.3-0.21,0.62-0.41,0.94-0.59c0.32-0.18,0.65-0.35,0.98-0.5c0.33-0.14,0.68-0.28,0.99-0.32  l0.75-0.11l-0.65-0.4l-0.01,0c-0.2-0.11-0.37-0.25-0.51-0.43c-0.14-0.18-0.25-0.39-0.35-0.62c-0.11-0.27-0.2-0.57-0.29-0.86  c0.27,0.31,0.6,0.57,0.94,0.78c0.53,0.33,1.1,0.56,1.7,0.73l0.04,0.01l0.07-0.06l0,0c0.04-0.04,0.14-0.1,0.22-0.16  c0.09-0.05,0.18-0.1,0.27-0.14c0.18-0.09,0.37-0.18,0.55-0.27c0.38-0.17,0.76-0.34,1.14-0.5c0.38-0.16,0.77-0.31,1.16-0.45  c0.38-0.14,0.79-0.29,1.15-0.4l0.46-0.13l-0.33-0.34l0,0c-0.07-0.06-0.14-0.17-0.22-0.27c-0.07-0.11-0.14-0.22-0.21-0.33  c-0.14-0.22-0.27-0.45-0.39-0.69c-0.12-0.24-0.24-0.47-0.35-0.71c-0.05-0.12-0.1-0.24-0.14-0.36c-0.02-0.06-0.04-0.12-0.05-0.18  c0-0.01-0.01-0.02-0.01-0.03c0.23,0.12,0.44,0.29,0.65,0.46c0.24,0.21,0.47,0.44,0.68,0.67c0.43,0.47,0.84,0.97,1.18,1.5l0.05,0.08  l0.09-0.05v0c0.32-0.19,0.72-0.31,1.1-0.42c0.39-0.11,0.78-0.2,1.17-0.28c0.39-0.08,0.79-0.17,1.19-0.23  c0.39-0.06,0.81-0.13,1.18-0.14l0.23,0l0.03-0.23v-0.01c0.01-0.06,0.01-0.12,0.01-0.16c0-0.04,0-0.08,0-0.12  c0-0.08-0.01-0.16-0.02-0.23c-0.01-0.16-0.03-0.3-0.04-0.46c-0.04-0.3-0.08-0.6-0.14-0.9c-0.08-0.43-0.18-0.85-0.31-1.26  c0.07,0.11,0.13,0.21,0.19,0.32c0.14,0.26,0.27,0.54,0.39,0.81c0.23,0.55,0.44,1.12,0.58,1.69l0.09,0.4l0.33-0.24h0  c0.58-0.4,1.09-0.86,1.58-1.33c0.5-0.47,0.97-0.95,1.44-1.45c0.46-0.49,0.92-1,1.36-1.51c0.44-0.52,0.87-1.04,1.26-1.6l0.06-0.09  L93.99,30.69z M58.55,46.2c0.11-0.22,0.23-0.44,0.35-0.65c0.32-0.58,0.66-1.15,1.04-1.69c0.09-0.13,0.2-0.26,0.3-0.39  c0.1-0.13,0.2-0.26,0.31-0.38c0.13-0.16,0.28-0.31,0.4-0.48c-0.02,0.4-0.03,0.8-0.02,1.21c0.01,0.54,0.02,1.08,0.05,1.61l0.04,0.72  c-0.39,0.36-0.77,0.73-1.14,1.1c-0.15,0.16-0.3,0.32-0.45,0.48c-0.2,0.22-0.4,0.43-0.59,0.66c-0.46,0.08-0.93,0.16-1.39,0.25  c0.18-0.44,0.36-0.88,0.56-1.3c0.08-0.17,0.15-0.33,0.23-0.49C58.33,46.62,58.44,46.41,58.55,46.2z M35.69,47  c0.19-0.27,0.38-0.55,0.56-0.83l0.27-0.42l0.27-0.4c0.71-1.05,1.56-2.04,2.46-2.97c0.91-0.93,1.85-1.82,2.87-2.64  c0.25-0.21,0.5-0.41,0.76-0.61c0.26-0.2,0.51-0.4,0.77-0.59c0.53-0.38,1.05-0.76,1.6-1.11c0.54-0.37,1.1-0.68,1.66-1.02  c0.57-0.3,1.14-0.62,1.73-0.87c1.17-0.52,2.39-0.96,3.63-1.08c0.64-0.06,1.28-0.08,1.88-0.02c0.6,0.06,1.2,0.23,1.47,0.57  c0.13,0.16,0.2,0.37,0.19,0.63c-0.01,0.25-0.08,0.53-0.19,0.81c-0.11,0.28-0.25,0.55-0.41,0.82c-0.08,0.13-0.16,0.27-0.25,0.4  c-0.09,0.14-0.19,0.29-0.28,0.44c-0.18,0.3-0.34,0.62-0.47,0.98c-0.12,0.35-0.19,0.75-0.13,1.17c0.06,0.42,0.31,0.82,0.63,1.08  c0.31,0.26,0.68,0.41,1,0.52c0.6,0.2,1.21,0.44,1.72,0.77c0.25,0.16,0.48,0.37,0.53,0.53c0.03,0.08,0.02,0.13-0.02,0.21  c-0.04,0.08-0.13,0.18-0.24,0.26c-0.22,0.17-0.5,0.31-0.79,0.44c-0.29,0.13-0.59,0.23-0.91,0.34c-0.62,0.22-1.25,0.45-1.87,0.69  c-1.24,0.47-2.47,0.98-3.67,1.55c-0.6,0.29-1.19,0.59-1.77,0.93c-0.57,0.34-1.13,0.72-1.63,1.17l0.13,0.15  c1.01-0.82,2.22-1.37,3.42-1.91c1.21-0.52,2.44-0.97,3.69-1.4c0.62-0.21,1.25-0.42,1.88-0.62c0.12-0.04,0.24-0.08,0.36-0.11  c0,0,0,0,0,0c0.25,0.44,0.57,0.84,0.9,1.22c0.16,0.18,0.33,0.35,0.5,0.52c-0.09,0.21-0.17,0.41-0.26,0.62  c-0.19,0.49-0.37,0.98-0.53,1.49c-0.6,0.12-1.21,0.24-1.81,0.37c-2.2,0.48-4.38,1-6.56,1.57c-2.17,0.57-4.34,1.15-6.49,1.8  c-2.15,0.64-4.29,1.31-6.42,2.04c-0.53,0.18-1.06,0.37-1.59,0.56l-0.79,0.29l-0.79,0.3c-1.06,0.41-2.07,0.81-3.14,1.16  c-0.76,0.26-1.54,0.51-2.31,0.73c0,0,0,0,0,0c1.68-1.85,3.29-3.77,4.85-5.72c0.82-1.04,1.64-2.08,2.42-3.16  C34.93,48.09,35.32,47.55,35.69,47z M63.76,48.87c0.55-0.01,1.09,0.01,1.63,0.06c0.54,0.05,1.07,0.12,1.58,0.25  c0.51,0.12,1,0.3,1.39,0.55c0.39,0.25,0.64,0.57,0.67,0.93c0.03,0.36-0.17,0.8-0.47,1.19c-0.15,0.19-0.32,0.39-0.5,0.57  c-0.18,0.18-0.38,0.35-0.6,0.53c-0.43,0.36-0.86,0.73-1.28,1.1c-0.43,0.38-0.85,0.76-1.25,1.22c-0.2,0.23-0.39,0.49-0.54,0.78  c-0.15,0.3-0.26,0.61-0.33,0.92c-0.13,0.62-0.14,1.19-0.19,1.73c-0.06,0.54-0.12,1.07-0.3,1.49c-0.17,0.42-0.46,0.68-0.89,0.83  c-0.1,0.05-0.23,0.06-0.34,0.09c-0.12,0.02-0.24,0.04-0.37,0.06l-0.83,0.08l-3.34,0.28l-6.69,0.51c-4.47,0.32-8.93,0.59-13.41,0.76  c-1.12,0.05-2.24,0.09-3.35,0.12c-0.56,0.01-1.12,0.04-1.68,0.04l-1.68,0.01c-0.56,0.01-1.12,0-1.68-0.02  c-0.56-0.02-1.12-0.01-1.67-0.04l-1.01-0.06h-0.01l-0.02,0c0.71-0.11,1.42-0.23,2.12-0.38c0.23-0.05,0.47-0.11,0.7-0.16  c0.23-0.06,0.46-0.11,0.7-0.18l0.69-0.21l0.66-0.21c0.89-0.26,1.79-0.5,2.69-0.72c1.81-0.44,3.64-0.83,5.48-1.19  c1.83-0.36,3.68-0.68,5.52-0.98c1.84-0.29,3.7-0.57,5.55-0.7l0.69-0.04l0.7-0.02l1.4-0.02c0.94-0.01,1.87-0.01,2.81,0  c0.94,0.01,1.87,0.04,2.8,0.09c0.47,0.03,0.93,0.06,1.4,0.1c0.46,0.04,0.93,0.09,1.37,0.2l0.05-0.19c-0.47-0.13-0.93-0.19-1.4-0.25  c-0.47-0.06-0.94-0.1-1.4-0.15c-0.94-0.08-1.87-0.14-2.81-0.18c-1.88-0.08-3.75-0.14-5.64-0.08c-1.89,0.09-3.76,0.33-5.62,0.58  c-1.86,0.25-3.72,0.55-5.57,0.89c-1.85,0.33-3.69,0.69-5.53,1.11c-0.92,0.21-1.84,0.43-2.75,0.69l-0.69,0.2l-0.66,0.19  c-0.22,0.07-0.44,0.11-0.67,0.16c-0.22,0.05-0.45,0.1-0.67,0.15c-1.81,0.36-3.66,0.61-5.51,0.84c-1.85,0.23-3.71,0.4-5.58,0.54  c-1.86,0.14-3.73,0.22-5.6,0.24c-0.47,0-0.93,0.01-1.4-0.01c-0.47-0.02-0.93-0.05-1.37-0.12c-0.44-0.07-0.87-0.18-1.23-0.33  c-0.17-0.08-0.34-0.16-0.43-0.25c-0.1-0.09-0.12-0.14-0.11-0.17c0-0.03,0.01-0.1,0.07-0.23c0.06-0.12,0.16-0.26,0.28-0.39  c0.25-0.27,0.58-0.51,0.92-0.68c0.09-0.04,0.17-0.08,0.26-0.11C8.94,60.82,9,60.8,9.13,60.76l0.68-0.2  c0.45-0.14,0.91-0.28,1.36-0.42c1.8-0.58,3.57-1.24,5.32-1.94c1.75-0.71,3.48-1.46,5.18-2.27c1.7-0.81,3.4-1.63,5.04-2.57  c1.64-0.94,3.23-1.97,4.72-3.13c0.64-0.5,1.28-1.01,1.89-1.55c-0.61,0.87-1.22,1.75-1.84,2.61l-4.57,6.33h0  c-1.24,0.35-2.49,0.66-3.75,0.94c-1.09,0.24-2.19,0.45-3.29,0.64c-1.1,0.19-2.21,0.36-3.32,0.49l0.02,0.2  c2.24-0.17,4.47-0.48,6.68-0.9c2.21-0.42,4.4-0.93,6.55-1.6c1.07-0.33,2.14-0.74,3.19-1.11l0.78-0.29l0.79-0.27  c0.53-0.18,1.05-0.36,1.59-0.53c2.12-0.69,4.27-1.31,6.42-1.91c4.31-1.19,8.64-2.3,13.02-3.2c2.18-0.45,4.38-0.86,6.57-1.09  c0.27-0.04,0.54-0.05,0.81-0.06C63.22,48.9,63.49,48.87,63.76,48.87z M92.55,32.24c-0.46,0.49-0.93,0.97-1.42,1.44  c-0.48,0.47-0.98,0.93-1.48,1.36c-0.42,0.35-0.84,0.7-1.28,1.01c-0.19-0.47-0.41-0.91-0.65-1.35c-0.15-0.27-0.31-0.54-0.49-0.79  c-0.18-0.25-0.35-0.52-0.64-0.71l0,0l-0.21-0.14l0.07,0.26c0.14,0.57,0.22,1.16,0.27,1.74c0.02,0.29,0.03,0.59,0.04,0.88  c0,0.14,0,0.29-0.01,0.44c0,0.07-0.01,0.14-0.01,0.21l-0.96,0.26c-0.39,0.11-0.79,0.21-1.17,0.33c-0.39,0.12-0.78,0.23-1.17,0.36  c-0.35,0.13-0.71,0.24-1.06,0.44c-0.34-0.52-0.74-1-1.15-1.45c-0.22-0.24-0.45-0.47-0.7-0.69c-0.25-0.21-0.5-0.42-0.83-0.55h0  l-0.08-0.03l-0.04,0.07c-0.06,0.13-0.03,0.19-0.03,0.27c0.01,0.07,0.02,0.14,0.04,0.21c0.03,0.14,0.07,0.27,0.11,0.4  c0.08,0.26,0.17,0.52,0.27,0.77c0.1,0.25,0.2,0.5,0.32,0.75c0.06,0.13,0.12,0.25,0.18,0.37c0.01,0.02,0.02,0.04,0.03,0.06  c-0.29,0.12-0.55,0.25-0.83,0.38c-0.38,0.18-0.75,0.37-1.12,0.55c-0.37,0.19-0.75,0.38-1.11,0.58c-0.18,0.1-0.37,0.2-0.55,0.31  c-0.09,0.05-0.18,0.11-0.27,0.17c-0.07,0.06-0.15,0.1-0.22,0.18c-0.55-0.16-1.09-0.39-1.58-0.69c-0.5-0.32-0.96-0.72-1.26-1.23  l0-0.01l-0.33-0.51l0.15,0.59c0.13,0.49,0.19,1,0.33,1.52c0.07,0.26,0.17,0.52,0.33,0.76c0.06,0.1,0.13,0.19,0.21,0.28  c-0.22,0.09-0.42,0.19-0.62,0.29c-0.34,0.18-0.66,0.39-0.98,0.6c-0.32,0.21-0.62,0.44-0.91,0.68c-0.15,0.12-0.29,0.25-0.43,0.38  c-0.1,0.11-0.21,0.21-0.29,0.34c-0.31-0.39-0.63-0.75-0.96-1.11l-0.55-0.59c-0.18-0.19-0.38-0.4-0.52-0.59l-0.01-0.01l-0.17-0.24  l-0.02,0.29c-0.03,0.53,0.04,1.04,0.13,1.55c0.04,0.25,0.1,0.51,0.16,0.76c0.03,0.13,0.07,0.25,0.11,0.38  c0.02,0.05,0.03,0.1,0.06,0.16c-0.19,0.11-0.36,0.23-0.53,0.34l-0.73,0.48l-0.72,0.49c-0.21,0.14-0.41,0.28-0.62,0.44  c-0.13-0.37-0.24-0.74-0.33-1.13c-0.09-0.42-0.18-0.86-0.18-1.28v-0.01l-0.01-0.43l-0.18,0.38c-0.13,0.26-0.16,0.49-0.21,0.74  c-0.05,0.24-0.08,0.49-0.12,0.73c-0.03,0.24-0.06,0.49-0.08,0.74c-0.01,0.12-0.02,0.25-0.03,0.37c-0.01,0.06-0.01,0.12-0.01,0.18  c-0.29,0.15-0.55,0.31-0.81,0.48c-0.32,0.2-0.64,0.4-0.95,0.61c-0.39,0.26-0.79,0.53-1.18,0.8c-0.17,0.01-0.34,0.02-0.5,0.05  c-0.28,0.03-0.56,0.06-0.84,0.1c-0.32,0.04-0.65,0.09-0.97,0.13c-0.26,0.04-0.51,0.08-0.77,0.12c0.12-0.11,0.24-0.21,0.36-0.32  c0.16-0.14,0.32-0.28,0.48-0.42c1.32-1.15,2.65-2.29,4-3.4c2.02-1.64,4.11-3.19,6.28-4.61L71.4,39l0.83-0.52  c0.32-0.2,0.64-0.4,0.96-0.6c0.23-0.15,0.47-0.29,0.7-0.43c1.13-0.65,2.24-1.32,3.41-1.9c0.58-0.3,1.15-0.62,1.73-0.9l1.76-0.84  c0.58-0.29,1.19-0.54,1.78-0.8l1.8-0.77l-0.01-0.03c-2.45,0.9-4.88,1.86-7.22,3.04c-1.18,0.56-2.32,1.2-3.47,1.82  c-0.57,0.32-1.13,0.66-1.69,0.99l-0.84,0.5l-0.83,0.53c-2.21,1.4-4.33,2.94-6.38,4.57c-0.99,0.78-1.95,1.58-2.87,2.44l0.12-0.67  c0.11-0.61,0.23-1.22,0.37-1.82c0.14-0.6,0.29-1.2,0.5-1.77l0.09-0.21l0.1-0.18c0.05-0.08,0.19-0.2,0.3-0.3l0.66-0.66  c0.22-0.22,0.44-0.44,0.66-0.65c0.07-0.06,0.13-0.12,0.2-0.18c-0.01,0.09-0.03,0.19-0.04,0.29c-0.04,0.31-0.07,0.61-0.09,0.92  c-0.02,0.3-0.03,0.61-0.03,0.92c0,0.15,0,0.3,0.01,0.46c0,0.08,0.01,0.16,0.02,0.23c0.02,0.08,0.02,0.16,0.07,0.27h0l0.12,0.23  l0.06-0.27c0.2-0.93,0.57-1.84,1.01-2.69c0.22-0.42,0.47-0.84,0.77-1.2c0.07-0.09,0.15-0.18,0.23-0.26  c0.08-0.08,0.16-0.15,0.26-0.22c0.19-0.14,0.39-0.28,0.59-0.42c0.8-0.54,1.61-1.07,2.43-1.6l1.22-0.8c0.23-0.15,0.45-0.3,0.68-0.45  c-0.03,0.13-0.06,0.26-0.09,0.38c-0.09,0.34-0.19,0.69-0.3,1.02c-0.11,0.34-0.23,0.67-0.38,1c-0.14,0.32-0.3,0.65-0.52,0.89l0,0  l0.13,0.14c0.75-0.69,1.52-1.38,2.16-2.19c0.32-0.4,0.61-0.84,0.84-1.31c0.22-0.45,0.39-0.93,0.48-1.42  c1.31-0.64,2.61-1.29,3.91-1.95c1.13-0.58,2.27-1.15,3.39-1.73c-0.26,0.48-0.53,0.95-0.81,1.42l-0.57,0.96  c-0.19,0.31-0.39,0.64-0.6,0.93l0,0l-0.5,0.68l0.64-0.54l0.01-0.01l0,0l2.03-1.69l1.02-0.85c0.33-0.28,0.66-0.54,0.98-0.85  c0.89-0.03,1.8-0.02,2.7-0.02c0.91,0.01,1.82,0,2.72,0.04c0.9,0.04,1.81,0.1,2.7,0.22c0.85,0.11,1.71,0.27,2.49,0.62  C93.4,31.31,92.97,31.78,92.55,32.24z"/><text x="0" y="115" fill="#000000" font-size="5px" font-weight="bold" font-family="'Helvetica Neue', Helvetica, Arial-Unicode, Arial, Sans-serif">Created by Benjamin Janot</text><text x="0" y="120" fill="#000000" font-size="5px" font-weight="bold" font-family="'Helvetica Neue', Helvetica, Arial-Unicode, Arial, Sans-serif">from the Noun Project</text></svg>